General
Unique ID                                : 88588468566155272778706521825157066995 (0x42A584B81576F4B056124550F97430F3)
Complete name                            : Versailles - Aristocrat's Symphony (Long Version) [PAL DVD 480p DD MPEG-2 REMUX-SEKAI].mkv
Format                                   : Matroska
Format version                           : Version 4
File size                                : 785 MiB
Duration                                 : 11 min 56 s
Overall bit rate mode                    : Variable
Overall bit rate                         : 9 190 kb/s
Frame rate                               : 29.970 FPS
Title                                    : Versailles - Aristocrat's Symphony (Long Version) [PAL DVD 480p DD MPEG-2 REMUX-SEKAI]
Encoded date                             : 2025-08-21 07:59:36 UTC
Writing application                      : mkvmerge 94.0 ('Initiate') 64-bit
Writing library                          : libebml v1.4.5 + libmatroska v1.7.1
Website                                  : https://sekai-archivist.blogspot.com/

Video
ID                                       : 1
Format                                   : MPEG Video
Format version                           : Version 2
Format profile                           : Main@Main
Format settings                          : BVOP
Format settings, BVOP                    : Yes
Format settings, Matrix                  : Default
Format settings, GOP                     : M=3, N=15
Format settings, picture structure       : Frame
Codec ID                                 : V_MPEG2
Codec ID/Info                            : MPEG 1 or 2 Video
Duration                                 : 11 min 56 s
Bit rate mode                            : Variable
Bit rate                                 : 9 000 kb/s
Width                                    : 720 pixels
Height                                   : 480 pixels
Display aspect ratio                     : 4:3
Frame rate mode                          : Constant
Frame rate                               : 29.970 (30000/1001) FPS
Standard                                 : NTSC
Color space                              : YUV
Chroma subsampling                       : 4:2:0
Bit depth                                : 8 bits
Scan type                                : Interlaced
Scan order                               : Bottom Field First
Compression mode                         : Lossy
Bits/(Pixel*Frame)                       : 0.869
Time code of first frame                 : 00:00:00;00
Time code source                         : Group of pictures header
GOP, Open/Closed                         : Closed
Stream size                              : 768 MiB (98%)
Language                                 : Japanese
Default                                  : Yes
Forced                                   : No

Audio
ID                                       : 2
Format                                   : AC-3
Format/Info                              : Audio Coding 3
Commercial name                          : Dolby Digital
Codec ID                                 : A_AC3
Duration                                 : 11 min 56 s
Bit rate mode                            : Constant
Bit rate                                 : 192 kb/s
Channel(s)                               : 2 channels
Channel layout                           : L R
Sampling rate                            : 48.0 kHz
Frame rate                               : 31.250 FPS (1536 SPF)
Compression mode                         : Lossy
Stream size                              : 16.4 MiB (2%)
Language                                 : Japanese
Service kind                             : Complete Main
Default                                  : Yes
Forced                                   : No
Dialog Normalization                     : -31 dB
compr                                    : -11.02 dB
dialnorm_Average                         : -31 dB
dialnorm_Minimum                         : -31 dB
dialnorm_Maximum                         : -31 dB


